<mxfile host="app.diagrams.net" modified="2023-10-24T05:26:01.429Z" agent="Mozilla/5.0 (Windows NT 10.0; Win64; x64) AppleWebKit/537.36 (KHTML, like Gecko) Chrome/118.0.0.0 Safari/537.36" etag="ne-mcYbRcrHcQpLn6Qlj" version="21.6.9" type="github">
  <diagram name="Page-1" id="iX8vmNvModkG07AGI74u">
    <mxGraphModel dx="880" dy="446" grid="1" gridSize="11" guides="1" tooltips="1" connect="1" arrows="1" fold="1" page="1" pageScale="1" pageWidth="827" pageHeight="1169" math="0" shadow="0">
      <root>
        <mxCell id="0" />
        <mxCell id="1" parent="0" />
        <mxCell id="jVvPCfSlr-9L_tuYoRfc-1" value="Categories&lt;br&gt;&lt;br&gt;( name -docs - image )" style="rounded=0;whiteSpace=wrap;html=1;" vertex="1" parent="1">
          <mxGeometry x="70" y="50" width="160" height="90" as="geometry" />
        </mxCell>
        <mxCell id="jVvPCfSlr-9L_tuYoRfc-3" value="Posts&amp;nbsp;&lt;br&gt;&lt;br&gt;( title - docs - image - tags )" style="rounded=0;whiteSpace=wrap;html=1;" vertex="1" parent="1">
          <mxGeometry x="510" y="30" width="140" height="100" as="geometry" />
        </mxCell>
        <mxCell id="jVvPCfSlr-9L_tuYoRfc-6" value="" style="edgeStyle=entityRelationEdgeStyle;fontSize=12;html=1;endArrow=ERoneToMany;rounded=0;entryX=1;entryY=0.5;entryDx=0;entryDy=0;exitX=0;exitY=0.5;exitDx=0;exitDy=0;" edge="1" parent="1" source="jVvPCfSlr-9L_tuYoRfc-3" target="jVvPCfSlr-9L_tuYoRfc-1">
          <mxGeometry width="100" height="100" relative="1" as="geometry">
            <mxPoint x="360" y="280" as="sourcePoint" />
            <mxPoint x="460" y="180" as="targetPoint" />
          </mxGeometry>
        </mxCell>
        <mxCell id="jVvPCfSlr-9L_tuYoRfc-9" value="tags&amp;nbsp;&lt;br&gt;&lt;br&gt;(id - tagName )" style="rounded=0;whiteSpace=wrap;html=1;" vertex="1" parent="1">
          <mxGeometry x="510" y="190" width="120" height="60" as="geometry" />
        </mxCell>
        <mxCell id="jVvPCfSlr-9L_tuYoRfc-10" value="" style="edgeStyle=entityRelationEdgeStyle;fontSize=12;html=1;endArrow=ERoneToMany;rounded=0;exitX=1;exitY=0.5;exitDx=0;exitDy=0;" edge="1" parent="1" source="jVvPCfSlr-9L_tuYoRfc-9" target="jVvPCfSlr-9L_tuYoRfc-3">
          <mxGeometry width="100" height="100" relative="1" as="geometry">
            <mxPoint x="500" y="220" as="sourcePoint" />
            <mxPoint x="220" y="235" as="targetPoint" />
            <Array as="points">
              <mxPoint x="370" y="330" />
            </Array>
          </mxGeometry>
        </mxCell>
        <mxCell id="jVvPCfSlr-9L_tuYoRfc-11" value="post translations&lt;br&gt;&lt;br&gt;( id - post-_id - title - content - locate )" style="rounded=0;whiteSpace=wrap;html=1;dashed=1;" vertex="1" parent="1">
          <mxGeometry x="800" y="30" width="120" height="60" as="geometry" />
        </mxCell>
        <mxCell id="jVvPCfSlr-9L_tuYoRfc-12" value="" style="endArrow=none;dashed=1;html=1;rounded=0;entryX=1;entryY=0.25;entryDx=0;entryDy=0;exitX=0;exitY=0.5;exitDx=0;exitDy=0;" edge="1" parent="1" source="jVvPCfSlr-9L_tuYoRfc-11" target="jVvPCfSlr-9L_tuYoRfc-3">
          <mxGeometry width="50" height="50" relative="1" as="geometry">
            <mxPoint x="420" y="210" as="sourcePoint" />
            <mxPoint x="470" y="160" as="targetPoint" />
          </mxGeometry>
        </mxCell>
      </root>
    </mxGraphModel>
  </diagram>
</mxfile>
